<?xml version="1.0" encoding="UTF-8"?>
<svg width="83px" height="82px" viewBox="0 0 83 82" version="1.1" xmlns="http://www.w3.org/2000/svg" xmlns:xlink="http://www.w3.org/1999/xlink">
    <title>d01d</title>
    <g id="Page-1" stroke="none" stroke-width="1" fill="none" fill-rule="evenodd">
        <g id="d01d" transform="translate(2.000000, 2.000000)">
            <path d="M66.442665,29.4799993 C73.1053315,27.9853326 78.0826647,22.0346661 78.0826647,14.921333 C78.0826647,6.67999983 71.4013315,7.10542736e-15 63.1613318,7.10542736e-15 L14.921333,7.10542736e-15 C6.68133317,7.10542736e-15 0,5.86266652 0,14.1039996 C0,21.1533328 4.88799988,27.0599993 11.4586664,28.6213326 C11.0533331,29.8226659 10.8333331,31.1133326 10.8333331,32.4519992 C10.8333331,39.0866657 16.2106663,44.4639989 22.8466661,44.4639989 C26.1373327,44.4639989 29.1226659,43.1399989 31.2919992,40.9933323 L31.2919992,40.9946656 C34.2159991,47.4373321 40.7026656,51.9186654 48.2399988,51.9186654 C58.5119985,51.9186654 66.8413317,43.5906656 66.8413317,33.3173325 C66.8413317,32.0013325 66.442665,29.4773326 66.442665,29.4773326 L66.442665,29.4799993 Z" id="path82" stroke="#FFFFFF" stroke-width="3.9999999" stroke-linecap="round" stroke-linejoin="round" transform="translate(39.041332, 25.959333) scale(-1, 1) rotate(-180.000000) translate(-39.041332, -25.959333) "></path>
            <path d="M39.1341324,65.785065 C43.7301322,70.3797316 43.9141322,75.2210648 43.9141322,75.2210648 C43.9141322,77.8597314 41.772799,79.9997313 39.1341324,79.9997313 C36.4954658,79.9997313 34.3567991,77.8597314 34.3567991,75.2210648 C34.3567991,75.2210648 34.5394658,70.3797316 39.1341324,65.785065 Z M57.5806652,61.3019985 C62.1766651,65.8979984 62.3619984,70.7393316 62.3619984,70.7393316 C62.3619984,73.3766648 60.2206652,75.5166648 57.5806652,75.5166648 C54.9419986,75.5166648 52.803332,73.3766648 52.803332,70.7393316 C52.803332,70.7393316 52.987332,65.8979984 57.5806652,61.3019985 Z M20.6887995,61.3006651 C25.283466,65.8953317 25.4687994,70.7366649 25.4687994,70.7366649 C25.4687994,73.3753315 23.3274661,75.5153314 20.6887995,75.5153314 C18.0501329,75.5153314 15.9101329,73.3753315 15.9101329,70.7366649 L15.9109951,70.7190035 C15.9284754,70.3972259 16.2553493,65.7341153 20.6887995,61.3006651 Z" id="path86-2" fill="#FFFFFF" fill-rule="nonzero"></path>
        </g>
    </g>
</svg>