<?xml version="1.0" encoding="UTF-8"?>
<svg width="20px" height="40px" viewBox="0 0 20 40" version="1.1" xmlns="http://www.w3.org/2000/svg" xmlns:xlink="http://www.w3.org/1999/xlink">
    <title>ico-min-temp</title>
    <g id="travel-app" stroke="none" stroke-width="1" fill="none" fill-rule="evenodd">
        <g id="Desktop-HD-Copy" transform="translate(-645.000000, -551.000000)" fill="#2A9D8F" fill-rule="nonzero">
            <path d="M661.666641,573.546328 L661.666641,557.666641 C661.666641,553.984766 658.681875,551 655,551 C651.318125,551 648.333359,553.984766 648.333359,557.666641 L648.333359,573.54625 C646.2875,575.377344 645,578.038359 645,581 C645,586.522891 649.477188,591 655,591 C660.522812,591 665,586.522891 665,581 C665,578.038359 663.7125,575.377344 661.666641,573.546328 Z M655,587.666641 C651.318125,587.666641 648.333359,584.681875 648.333359,581 C648.333359,579.075234 649.149063,577.289688 650.556406,576.030078 L651.666719,575.036328 L651.666719,557.666641 C651.666719,555.825703 653.159141,554.333281 655.000078,554.333281 C656.841016,554.333281 658.333437,555.825625 658.333437,557.666641 L658.333437,575.036328 L659.44375,576.030078 C660.851094,577.289688 661.666797,579.075156 661.666797,581 C661.666641,584.681875 658.681875,587.666641 655,587.666641 Z M656.666719,573.005234 L656.666592,576.284483 C658.608618,576.970856 660,578.822941 660,581 C660,583.761424 657.761424,586 655,586 C652.238576,586 650,583.761424 650,581 C650,578.822941 651.391382,576.970856 653.333408,576.284483 L653.333359,573.005234 L656.666719,573.005234 Z" id="ico-min-temp"></path>
        </g>
    </g>
</svg>