<?xml version="1.0" encoding="UTF-8"?>
<svg width="39px" height="39px" viewBox="0 0 39 39" version="1.1" xmlns="http://www.w3.org/2000/svg" xmlns:xlink="http://www.w3.org/1999/xlink">
    <title>ico-my-trips</title>
    <g id="Symbols" stroke="none" stroke-width="1" fill="none" fill-rule="evenodd">
        <g id="main-menu" fill="#FFFFFF">
            <path d="M19.5,0 C30.2695526,0 39,8.73044738 39,19.5 C39,30.2695526 30.2695526,39 19.5,39 C8.73044738,39 0,30.2695526 0,19.5 C0,8.73044738 8.73044738,0 19.5,0 Z M24.6371681,10 C23.4078319,10 22.2807522,10.3895575 21.2873009,11.1578761 C20.3348673,11.894469 19.7007522,12.8326549 19.3274336,13.5148673 C18.954115,12.8326106 18.32,11.894469 17.3675664,11.1578761 C16.374115,10.3895575 15.2470354,10 14.0176991,10 C10.5870796,10 8,12.8060619 8,16.5271681 C8,20.5472566 11.2275664,23.2977434 16.1136726,27.4615929 C16.9434071,28.1687168 17.8838938,28.9702212 18.8614159,29.8250442 C18.9902655,29.9378761 19.1557522,30 19.3274336,30 C19.499115,30 19.6646018,29.9378761 19.7934513,29.8250885 C20.7710619,28.9701327 21.7115044,28.1686726 22.5417257,27.4611504 C27.4273009,23.2977434 30.6548673,20.5472566 30.6548673,16.5271681 C30.6548673,12.8060619 28.0677876,10 24.6371681,10 Z" id="ico-my-trips"></path>
        </g>
    </g>
</svg>