<svg height="512pt" viewBox="-24 0 512 512.00114" width="512pt" xmlns="http://www.w3.org/2000/svg"><path d="m195.523438 145.355469c-4.175782 0-7.558594 3.382812-7.558594 7.558593v8.441407c0 4.175781 3.382812 7.558593 7.558594 7.558593 4.175781 0 7.558593-3.382812 7.558593-7.558593v-8.441407c0-4.175781-3.382812-7.558593-7.558593-7.558593zm0 0"/><path d="m265.691406 168.914062c4.175782 0 7.558594-3.386718 7.558594-7.558593v-8.441407c0-4.175781-3.382812-7.558593-7.558594-7.558593-4.175781 0-7.558594 3.382812-7.558594 7.558593v8.441407c0 4.171875 3.382813 7.558593 7.558594 7.558593zm0 0"/><path d="m101.4375 353.179688 79.4375 14.734374c.46875.085938.929688.128907 1.386719.128907 3.574219 0 6.75-2.542969 7.421875-6.183594.761718-4.101563-1.949219-8.046875-6.050782-8.808594l-79.4375-14.734375c-4.101562-.75-8.046874 1.949219-8.808593 6.054688-.761719 4.105468 1.949219 8.046875 6.050781 8.808594zm0 0"/><path d="m101.4375 393.015625 79.4375 14.734375c.46875.085938.929688.128906 1.386719.128906 3.574219 0 6.75-2.542968 7.421875-6.183594.761718-4.101562-1.949219-8.046874-6.050782-8.808593l-79.4375-14.734375c-4.101562-.753906-8.046874 1.949218-8.808593 6.054687s1.949219 8.046875 6.050781 8.808594zm0 0"/><path d="m183.632812 432.722656-101.496093-18.8125c-4.101563-.757812-8.046875 1.949219-8.808594 6.054688-.761719 4.101562 1.949219 8.046875 6.054687 8.808594l101.496094 18.8125c.464844.085937.925782.128906 1.386719.128906 3.570313 0 6.746094-2.542969 7.421875-6.183594.757812-4.101562-1.949219-8.046875-6.054688-8.808594zm0 0"/><path d="m396.816406 259.992188c-.761718-4.105469-4.710937-6.816407-8.808594-6.050782l-105.863281 19.664063c-4.101562.761719-6.8125 4.707031-6.050781 8.8125.675781 3.636719 3.851562 6.175781 7.421875 6.175781.457031 0 .921875-.039062 1.390625-.128906l105.859375-19.660156c4.105469-.761719 6.8125-4.707032 6.050781-8.8125zm0 0"/><path d="m370.363281 304.757812c-.761719-4.101562-4.707031-6.8125-8.808593-6.050781l-79.410157 14.734375c-4.101562.761719-6.8125 4.703125-6.050781 8.808594.675781 3.636719 3.851562 6.179688 7.421875 6.179688.457031 0 .921875-.042969 1.386719-.128907l79.410156-14.730469c4.105469-.761718 6.8125-4.707031 6.050781-8.8125zm0 0"/><path d="m357.1875 339.339844-75.042969 13.9375c-4.101562.765625-6.8125 4.707031-6.050781 8.8125.675781 3.636718 3.851562 6.175781 7.421875 6.175781.457031 0 .921875-.039063 1.390625-.128906l75.042969-13.9375c4.101562-.765625 6.8125-4.707031 6.050781-8.8125-.765625-4.101563-4.710938-6.816407-8.8125-6.046875zm0 0"/><path d="m279.898438 445.015625c2.054687 1.757813 4.683593 2.699219 7.421874 2.699219.628907 0 1.261719-.050782 1.898438-.152344.011719 0 .023438-.003906.035156-.003906l70.484375-11.542969c6.128907-1.054687 10.753907-6.511719 10.753907-12.691406v-33.261719c0-3.375-1.4375-6.535156-3.941407-8.671875-2.523437-2.148437-5.914062-3.074219-9.320312-2.527344l-70.382813 11.554688c-6.203125.984375-10.878906 6.4375-10.878906 12.679687v33.261719c0 3.367187 1.429688 6.527344 3.929688 8.65625zm11.183593-39.976563 64.296875-10.554687v26.929687l-64.296875 10.527344zm0 0"/><path d="m181.503906 272.082031-33.824218-5.722656c-4.113282-.699219-8.015626 2.074219-8.710938 6.191406-.695312 4.113281 2.074219 8.015625 6.191406 8.710938l32.175782 5.445312v29.664063l-91.316407-15.476563v-29.664062l24.949219 4.222656c4.113281.695313 8.015625-2.074219 8.710938-6.1875.699218-4.117187-2.074219-8.015625-6.1875-8.714844l-29.136719-4.933593c-3.402344-.566407-6.824219.355468-9.386719 2.53125-2.582031 2.1875-4.0625 5.4375-4.0625 8.917968v35.445313c0 6.375 4.710938 11.964843 10.941406 13.007812l97.152344 16.460938c.65625.109375 1.3125.164062 1.964844.164062 2.722656 0 5.351562-.9375 7.421875-2.695312 2.582031-2.183594 4.0625-5.4375 4.0625-8.917969v-35.445312c0-6.371094-4.714844-11.964844-10.945313-13.003907zm0 0"/><path d="m432.210938 302.902344v-72.46875c0-8.039063-3.296876-15.425782-9.039063-20.265625-5.753906-4.851563-13.242187-6.777344-21.09375-5.429688l-84.347656 14.539063c15.464843-20.179688 24.582031-43.085938 24.582031-63.136719v-56.609375c0-34.046875-15.046875-62.628906-42.367188-80.46875-33.726562-22.023438-82.664062-25.285156-121.777343-8.105469-37.753907 16.574219-59.40625 48.859375-59.40625 88.574219v56.609375c0 20.046875 9.105469 42.945313 24.554687 63.109375l-84.1875-14.515625c-7.84375-1.34375-15.332031.582031-21.085937 5.429687-5.746094 4.84375-9.039063 12.230469-9.039063 20.269532v79.558594c-16.644531 4.183593-29.003906 19.257812-29.003906 37.171874v28.761719c0 17.910157 12.359375 32.988281 29.003906 37.167969v35.988281c0 15.847657 12.109375 30.347657 27.5625 33.003907l172.742188 29.804687c.011718.003906.023437 0 .03125.003906.414062.070313.832031.105469 1.253906.105469.417969 0 .835938-.035156 1.242188-.105469.015624 0 .03125 0 .042968-.003906l80.914063-13.96875c4.113281-.710937 6.871093-4.621094 6.160156-8.734375s-4.617187-6.863281-8.730469-6.160156l-72.070312 12.441406v-247.136719l60.890625-10.496093c.019531-.003907.035156-.007813.050781-.011719l105.546875-18.191407c3.382813-.582031 6.5.164063 8.789063 2.089844 2.363281 1.992188 3.667968 5.085938 3.667968 8.710938v71.71875h-5.910156c-13.71875 0-24.878906 11.15625-24.878906 24.867187v55.648438c0 13.710937 11.160156 24.867187 24.878906 24.867187h5.910156v41.542969c0 8.417969-6.875 16.710937-15.019531 18.109375l-52.589844 9.066406c-4.113281.710938-6.871093 4.617188-6.164062 8.730469.636719 3.679687 3.828125 6.277344 7.441406 6.277344.425781 0 .855469-.035157 1.292969-.113281l52.585937-9.0625c15.460938-2.65625 27.570313-17.15625 27.570313-33.007813v-42.292969c17.535156-3.515625 30.789062-19.015625 30.789062-37.550781v-28.757813c-.003906-18.546874-13.253906-34.054687-30.792968-37.574218zm-247.964844-278.105469c34.632812-15.210937 77.808594-12.429687 107.433594 6.917969 15.425781 10.074218 33.667968 29.003906 35.386718 62.617187-63.441406 23.105469-89.785156 13.128907-115.285156 3.464844-14.457031-5.476563-29.238281-11.078125-49.648438-11.078125-8.222656 0-17.367187.910156-27.761718 3.101562 4.082031-39.054687 32.449218-57.375 49.875-65.023437zm-50.371094 131.34375v-50.714844c34.171875-8.023437 52.851562-.960937 72.554688 6.503907 14.84375 5.625 30.757812 11.65625 53.703124 11.65625 17.425782 0 38.921876-3.496094 67.0625-13.273438v45.828125c0 21.277344-12.648437 46.851563-33.128906 67.214844l-63.472656 10.941406-63.613281-10.96875c-20.464844-20.34375-33.105469-45.910156-33.105469-67.1875zm-118.761719 219.78125v-28.757813c0-12.800781 10.421875-23.214843 23.234375-23.214843h13.4375c5.398438 0 9.792969 4.390625 9.792969 9.785156v55.617187c0 5.394532-4.390625 9.785157-9.792969 9.785157h-13.4375c-12.8125 0-23.234375-10.414063-23.234375-23.214844zm29.003907 73.160156v-34.832031h7.667968c13.734375 0 24.90625-11.167969 24.90625-24.898438v-55.617187c0-13.726563-11.171875-24.894531-24.90625-24.894531h-7.667968v-78.40625c0-3.625 1.300781-6.714844 3.667968-8.710938 2.289063-1.925781 5.40625-2.667968 8.785156-2.089844l166.464844 28.699219v247.140625l-163.902344-28.285156c-8.140624-1.398438-15.015624-9.691406-15.015624-18.105469zm403.769531-79.84375c0 12.78125-10.421875 23.183594-23.230469 23.183594h-13.46875c-5.382812 0-9.765625-4.375-9.765625-9.753906v-55.648438c0-5.378906 4.382813-9.753906 9.765625-9.753906h13.46875c12.808594 0 23.230469 10.414063 23.230469 23.210937zm0 0"/></svg>