<?xml version="1.0" encoding="UTF-8"?>
<svg width="83px" height="77px" viewBox="0 0 83 77" version="1.1" xmlns="http://www.w3.org/2000/svg" xmlns:xlink="http://www.w3.org/1999/xlink">
    <title>s01d</title>
    <g id="Page-1" stroke="none" stroke-width="1" fill="none" fill-rule="evenodd">
        <g id="s01d" transform="translate(2.000000, 2.000000)">
            <path d="M66.442665,29.4799993 C73.1053315,27.9853326 78.0826647,22.0346661 78.0826647,14.921333 C78.0826647,6.67999983 71.4013315,-2.13162821e-14 63.1613318,-2.13162821e-14 L14.921333,-2.13162821e-14 C6.68133317,-2.13162821e-14 0,5.86266652 0,14.1039996 C0,21.1533328 4.88799988,27.0599993 11.4586664,28.6213326 C11.0533331,29.8226659 10.8333331,31.1133326 10.8333331,32.4519992 C10.8333331,39.0866657 16.2106663,44.4639989 22.8466661,44.4639989 C26.1373327,44.4639989 29.1226659,43.1399989 31.2919992,40.9933323 L31.2919992,40.9946656 C34.2159991,47.4373321 40.7026656,51.9186654 48.2399988,51.9186654 C58.5119985,51.9186654 66.8413317,43.5906656 66.8413317,33.3173325 C66.8413317,32.0013325 66.442665,29.4773326 66.442665,29.4773326 L66.442665,29.4799993 Z" id="path258" stroke="#FFFFFF" stroke-width="3.9999999" stroke-linecap="round" stroke-linejoin="round" transform="translate(39.041332, 25.959333) scale(-1, 1) rotate(-180.000000) translate(-39.041332, -25.959333) "></path>
            <path d="M24.0103994,62.3098651 C24.0103994,60.9058651 22.8717328,59.7671985 21.4677328,59.7671985 C20.0637328,59.7671985 18.9250662,60.9058651 18.9250662,62.3098651 C18.9250662,63.7138651 20.0637328,64.8525317 21.4677328,64.8525317 C22.8717328,64.8525317 24.0103994,63.7138651 24.0103994,62.3098651" id="path262" fill="#FFFFFF" fill-rule="nonzero" transform="translate(21.467733, 62.309865) scale(-1, 1) rotate(-180.000000) translate(-21.467733, -62.309865) "></path>
            <path d="M24.0103994,62.3098651 C24.0103994,60.9058651 22.8717328,59.7671985 21.4677328,59.7671985 C20.0637328,59.7671985 18.9250662,60.9058651 18.9250662,62.3098651 C18.9250662,63.7138651 20.0637328,64.8525317 21.4677328,64.8525317 C22.8717328,64.8525317 24.0103994,63.7138651 24.0103994,62.3098651 Z" id="path266" stroke="#FFFFFF" stroke-width="1.3333333" stroke-linecap="round" stroke-linejoin="round" transform="translate(21.467733, 62.309865) scale(-1, 1) rotate(-180.000000) translate(-21.467733, -62.309865) "></path>
            <path d="M42.4087989,62.3098651 C42.4087989,60.9058651 41.2701323,59.7671985 39.864799,59.7671985 C38.460799,59.7671985 37.3234657,60.9058651 37.3234657,62.3098651 C37.3234657,63.7138651 38.460799,64.8525317 39.864799,64.8525317 C41.2701323,64.8525317 42.4087989,63.7138651 42.4087989,62.3098651" id="path270" fill="#FFFFFF" fill-rule="nonzero" transform="translate(39.866132, 62.309865) scale(-1, 1) rotate(-180.000000) translate(-39.866132, -62.309865) "></path>
            <path d="M42.4087989,62.3098651 C42.4087989,60.9058651 41.2701323,59.7671985 39.864799,59.7671985 C38.460799,59.7671985 37.3234657,60.9058651 37.3234657,62.3098651 C37.3234657,63.7138651 38.460799,64.8525317 39.864799,64.8525317 C41.2701323,64.8525317 42.4087989,63.7138651 42.4087989,62.3098651 Z" id="path274" stroke="#FFFFFF" stroke-width="1.3333333" stroke-linecap="round" stroke-linejoin="round" transform="translate(39.866132, 62.309865) scale(-1, 1) rotate(-180.000000) translate(-39.866132, -62.309865) "></path>
            <path d="M60.8059985,62.3098651 C60.8059985,60.9058651 59.6673318,59.7671985 58.2633319,59.7671985 C56.8593319,59.7671985 55.7219986,60.9058651 55.7219986,62.3098651 C55.7219986,63.7138651 56.8593319,64.8525317 58.2633319,64.8525317 C59.6673318,64.8525317 60.8059985,63.7138651 60.8059985,62.3098651" id="path278" fill="#FFFFFF" fill-rule="nonzero" transform="translate(58.263999, 62.309865) scale(-1, 1) rotate(-180.000000) translate(-58.263999, -62.309865) "></path>
            <path d="M60.8059985,62.3098651 C60.8059985,60.9058651 59.6673318,59.7671985 58.2633319,59.7671985 C56.8593319,59.7671985 55.7219986,60.9058651 55.7219986,62.3098651 C55.7219986,63.7138651 56.8593319,64.8525317 58.2633319,64.8525317 C59.6673318,64.8525317 60.8059985,63.7138651 60.8059985,62.3098651 Z" id="path282" stroke="#FFFFFF" stroke-width="1.3333333" stroke-linecap="round" stroke-linejoin="round" transform="translate(58.263999, 62.309865) scale(-1, 1) rotate(-180.000000) translate(-58.263999, -62.309865) "></path>
            <path d="M33.3437325,71.6431982 C33.3437325,70.2391982 32.2050659,69.1005316 30.8010659,69.1005316 C29.3970659,69.1005316 28.2583993,70.2391982 28.2583993,71.6431982 C28.2583993,73.0471982 29.3970659,74.1858648 30.8010659,74.1858648 C32.2050659,74.1858648 33.3437325,73.0471982 33.3437325,71.6431982" id="path286" fill="#FFFFFF" fill-rule="nonzero" transform="translate(30.801066, 71.643198) scale(-1, 1) rotate(-180.000000) translate(-30.801066, -71.643198) "></path>
            <path d="M33.3437325,71.6431982 C33.3437325,70.2391982 32.2050659,69.1005316 30.8010659,69.1005316 C29.3970659,69.1005316 28.2583993,70.2391982 28.2583993,71.6431982 C28.2583993,73.0471982 29.3970659,74.1858648 30.8010659,74.1858648 C32.2050659,74.1858648 33.3437325,73.0471982 33.3437325,71.6431982 Z" id="path290" stroke="#FFFFFF" stroke-width="1.3333333" stroke-linecap="round" stroke-linejoin="round" transform="translate(30.801066, 71.643198) scale(-1, 1) rotate(-180.000000) translate(-30.801066, -71.643198) "></path>
            <path d="M51.742132,71.6431982 C51.742132,70.2391982 50.6034654,69.1005316 49.1981321,69.1005316 C47.7941321,69.1005316 46.6567988,70.2391982 46.6567988,71.6431982 C46.6567988,73.0471982 47.7941321,74.1858648 49.1981321,74.1858648 C50.6034654,74.1858648 51.742132,73.0471982 51.742132,71.6431982" id="path294" fill="#FFFFFF" fill-rule="nonzero" transform="translate(49.199465, 71.643198) scale(-1, 1) rotate(-180.000000) translate(-49.199465, -71.643198) "></path>
            <path d="M51.742132,71.6431982 C51.742132,70.2391982 50.6034654,69.1005316 49.1981321,69.1005316 C47.7941321,69.1005316 46.6567988,70.2391982 46.6567988,71.6431982 C46.6567988,73.0471982 47.7941321,74.1858648 49.1981321,74.1858648 C50.6034654,74.1858648 51.742132,73.0471982 51.742132,71.6431982 Z" id="path298" stroke="#FFFFFF" stroke-width="1.3333333" stroke-linecap="round" stroke-linejoin="round" transform="translate(49.199465, 71.643198) scale(-1, 1) rotate(-180.000000) translate(-49.199465, -71.643198) "></path>
        </g>
    </g>
</svg>