<?xml version="1.0" encoding="UTF-8"?>
<svg width="73px" height="81px" viewBox="0 0 73 81" version="1.1" xmlns="http://www.w3.org/2000/svg" xmlns:xlink="http://www.w3.org/1999/xlink">
    <title>t01n</title>
    <g id="Page-1" stroke="none" stroke-width="1" fill="none" fill-rule="evenodd">
        <g id="t01n" transform="translate(2.000000, 2.000000)">
            <path d="M46.1186655,38.3690657 C50.7426654,37.3330657 54.1986653,33.2023992 54.1986653,28.265066 C54.1986653,22.5437328 49.5599988,17.9063996 43.8413322,17.9063996 L10.3573331,17.9063996 C4.63733322,17.9063996 0,21.9757328 0,27.697066 C0,32.5890659 3.39333325,36.6890657 7.95333313,37.7730657 C7.67333314,38.6090657 7.51999981,39.502399 7.51999981,40.434399 C7.51999981,45.0383989 11.2533331,48.7703988 15.8573329,48.7703988 C18.1439995,48.7703988 20.2133328,47.8503988 21.7199995,46.3610655 L21.7213328,46.3610655 C23.7506661,50.8343987 28.2533326,53.9450653 33.4839992,53.9450653 C40.6133323,53.9450653 46.3946655,48.1637321 46.3946655,41.0330656 C46.3946655,40.118399 46.1186655,38.3677324 46.1186655,38.3677324 L46.1186655,38.3690657 Z" id="path522" stroke="#FFFFFF" stroke-width="3.9999999" stroke-linecap="round" stroke-linejoin="round" transform="translate(27.099333, 35.925732) scale(-1, 1) rotate(-180.000000) translate(-27.099333, -35.925732) "></path>
            <path d="M49.8419988,-1.77635684e-14 C59.2726652,-1.77635684e-14 68.2513316,7.64533314 68.2513316,17.0773329 C68.2513316,17.1559996 68.2393316,17.2346662 68.2379983,17.3133329 C65.9099984,14.457333 62.3673318,12.6306664 58.3953319,12.6306664 C51.3819987,12.6306664 45.6966655,18.3146662 45.6966655,25.3279994 C45.6966655,28.6946659 47.0179988,31.7493325 49.1593321,34.0239991 C40.6806656,33.0239992 34.0979991,27.1559993 34.0979991,18.4106662" id="path526" stroke="#FFFFFF" stroke-width="3.9999999" stroke-linecap="round" stroke-linejoin="round" transform="translate(51.174665, 17.012000) scale(-1, 1) rotate(-180.000000) translate(-51.174665, -17.012000) "></path>
            <polygon id="path530" fill="#FFFFFF" fill-rule="nonzero" transform="translate(26.505466, 66.150932) scale(-1, 1) rotate(-180.000000) translate(-26.505466, -66.150932) " points="22.3647994 77.5082647 14.0234663 67.092265 22.0261328 66.9909317 12.774133 54.7935986 40.236799 69.9935983 30.5994659 70.0442649 35.7021324 77.5082647"></polygon>
            <polygon id="path534" stroke="#FFFFFF" stroke-width="1.3333333" stroke-linecap="round" stroke-linejoin="round" transform="translate(26.505466, 66.150932) scale(-1, 1) rotate(-180.000000) translate(-26.505466, -66.150932) " points="22.3647994 77.5082647 14.0234663 67.092265 22.0261328 66.9909317 12.774133 54.7935986 40.236799 69.9935983 30.5994659 70.0442649 35.7021324 77.5082647"></polygon>
        </g>
    </g>
</svg>