<?xml version="1.0" encoding="UTF-8"?>
<svg width="84px" height="84px" viewBox="0 0 84 84" version="1.1" xmlns="http://www.w3.org/2000/svg" xmlns:xlink="http://www.w3.org/1999/xlink">
    <title>c01d</title>
    <g id="Page-1" stroke="none" stroke-width="1" fill="none" fill-rule="evenodd" stroke-linecap="round" stroke-linejoin="round">
        <path d="M63.7573318,41.7058657 C63.7573318,53.8991987 53.873332,63.7831985 41.6813323,63.7831985 C29.4893326,63.7831985 19.6053329,53.8991987 19.6053329,41.7058657 C19.6053329,29.513866 29.4893326,19.6298662 41.6813323,19.6298662 C53.873332,19.6298662 63.7573318,29.513866 63.7573318,41.7058657 Z M41.6817323,8.94933316 L41.6817323,2 M2.06986666,41.707199 L9.01919982,41.707199 M64.7755984,64.8022651 L70.2409316,70.2689316 M13.1186664,13.1459997 L18.5853329,18.6126663 M18.5841329,64.8029318 L13.1174664,70.2695983 M70.241065,13.1466664 L64.7730651,18.6133329 M64.7767984,18.6127996 L70.243465,13.1461331 M13.1199997,70.269065 L18.5866663,64.8023984 M64.7078651,64.8706651 L70.1731983,70.3373316 M13.0509331,13.2137331 L18.5175996,18.6803996 M41.6121323,74.4363982 L41.6121323,81.3857313 M41.6114657,2.16426666 L41.6114657,9.11359982 M8.94933316,41.7749323 L2,41.7749323 M81.2202647,41.7749323 L74.2695982,41.7749323" id="c01d" stroke="#FFFFFF" stroke-width="3.9999999"></path>
    </g>
</svg>