<?xml version="1.0" encoding="UTF-8"?>
<svg width="86px" height="64px" viewBox="0 0 86 64" version="1.1" xmlns="http://www.w3.org/2000/svg" xmlns:xlink="http://www.w3.org/1999/xlink">
    <title>c02d</title>
    <g id="Page-1" stroke="none" stroke-width="1" fill="none" fill-rule="evenodd" stroke-linecap="round" stroke-linejoin="round">
        <path d="M53.1986654,38.7331991 C58.3319986,39.8851991 62.1679985,44.4705323 62.1679985,49.9518655 C62.1679985,56.302532 57.0186653,61.4505318 50.6693321,61.4505318 L13.4986664,61.4505318 C7.14799987,61.4505318 2,56.9331986 2,50.5811988 C2,45.1505323 5.76533324,40.597199 10.8293331,39.3958657 C10.5159998,38.4691991 10.3479998,37.4758658 10.3479998,36.4425325 C10.3479998,31.3318659 14.4919997,27.1865327 19.6039996,27.1865327 C22.1413328,27.1865327 24.4399994,28.207866 26.1119994,29.8611993 L26.1133327,29.859866 C28.3653327,24.8971994 33.3653325,21.4425328 39.1706657,21.4425328 C47.0866655,21.4425328 53.5039987,27.859866 53.5039987,35.7758658 C53.5039987,36.7905325 53.1986654,38.7358657 53.1986654,38.7358657 L53.1986654,38.7331991 Z M43.8118656,22.2123995 C45.8985322,19.8710662 48.7598655,18.1857329 52.0878654,17.5977329 C59.9518652,16.205733 67.4545317,21.4537328 68.8451983,29.3177327 C69.9971983,35.8190658 66.6091984,42.0737323 60.9571985,44.8323989 M54.6347987,7.61599986 L54.600132,2 M78.3249314,34.0339992 L83.9422646,33.9979992 M72.5410649,14.7715997 L76.4877315,10.7755998 M35.3301325,14.7715997 L31.3847993,10.7755998 M74.2871982,54.356932 L70.3405316,50.3609321" id="c02d" stroke="#FFFFFF" stroke-width="3.9999999"></path>
    </g>
</svg>