<?xml version="1.0" encoding="UTF-8"?>
<svg width="84px" height="67px" viewBox="0 0 84 67" version="1.1" xmlns="http://www.w3.org/2000/svg" xmlns:xlink="http://www.w3.org/1999/xlink">
    <title>c02n</title>
    <g id="Page-1" stroke="none" stroke-width="1" fill="none" fill-rule="evenodd" stroke-linecap="round" stroke-linejoin="round">
        <path d="M60.5639985,38.8209324 C66.4346651,40.1382657 70.8226649,45.3835989 70.8226649,51.6542654 C70.8226649,58.9169319 64.9333318,64.8049318 57.6706653,64.8049318 L15.1519997,64.8049318 C7.88799985,64.8049318 2,59.6382652 2,52.3742654 C2,46.1609322 6.30933323,40.9542657 12.0999997,39.5782657 C11.7426664,38.5182658 11.5493331,37.3822658 11.5493331,36.2009325 C11.5493331,30.3529326 16.289333,25.6129327 22.1373328,25.6129327 C25.0386661,25.6129327 27.6679994,26.782266 29.5813326,28.6729327 L29.582666,28.6715993 C32.1586659,22.9929328 37.8773324,19.0435996 44.5186656,19.0435996 C53.573332,19.0435996 60.9146652,26.3835994 60.9146652,35.4382658 C60.9146652,36.5982658 60.5639985,38.8235991 60.5639985,38.8235991 L60.5639985,38.8209324 Z M63.1538651,36.0226658 C72.5845316,36.0226658 81.563198,28.3773327 81.563198,18.9453329 C81.563198,18.8653329 81.5525313,18.7893329 81.551198,18.7093329 C79.2231981,21.5653328 75.6805315,23.3933328 71.7071983,23.3933328 C64.6938651,23.3933328 59.0098652,17.7079996 59.0098652,10.6946664 C59.0098652,7.32666653 60.3311985,4.27333328 62.4711985,2 C53.992532,2.99866664 47.4111989,8.86533316 47.4111989,17.6119996" id="c02n" stroke="#FFFFFF" stroke-width="3.9999999"></path>
    </g>
</svg>