<?xml version="1.0" encoding="UTF-8"?>
<svg width="85px" height="58px" viewBox="0 0 85 58" version="1.1" xmlns="http://www.w3.org/2000/svg" xmlns:xlink="http://www.w3.org/1999/xlink">
    <title>c04d</title>
    <g id="Page-1" stroke="none" stroke-width="1" fill="none" fill-rule="evenodd" stroke-linecap="round" stroke-linejoin="round">
        <path d="M70.8946649,32.5679992 C77.8026648,31.0173326 82.963998,24.8466661 82.963998,17.4719996 C82.963998,8.92666649 76.0359981,2 67.490665,2 L17.4719996,2 C8.92666649,2 2,8.07866651 2,16.6239996 C2,23.9333328 7.06799987,30.058666 13.881333,31.6773326 C13.4599997,32.9239992 13.2333331,34.2613325 13.2333331,35.6506658 C13.2333331,42.5293323 18.8093329,48.1053322 25.6879994,48.1053322 C29.102666,48.1053322 32.1959992,46.7319989 34.4453325,44.5066656 L34.4466659,44.5079989 C37.4786658,51.1879988 44.2053323,55.8346653 52.0199987,55.8346653 C62.6706651,55.8346653 71.3066649,47.1986655 71.3066649,36.5466658 C71.3066649,35.1813325 70.8946649,32.5653326 70.8946649,32.5653326 L70.8946649,32.5679992 Z" id="c04d" stroke="#FFFFFF" stroke-width="3.9999999" transform="translate(42.481999, 28.917333) scale(-1, 1) rotate(-180.000000) translate(-42.481999, -28.917333) "></path>
    </g>
</svg>