<?xml version="1.0" encoding="UTF-8"?>
<svg width="20px" height="40px" viewBox="0 0 20 40" version="1.1" xmlns="http://www.w3.org/2000/svg" xmlns:xlink="http://www.w3.org/1999/xlink">
    <title>ico-max-temp</title>
    <g id="travel-app" stroke="none" stroke-width="1" fill="none" fill-rule="evenodd">
        <g id="Desktop-HD-Copy" transform="translate(-762.000000, -554.000000)" fill="#F4A261" fill-rule="nonzero">
            <path d="M778.666641,576.546328 L778.666641,560.666641 C778.666641,556.984766 775.681875,554 772,554 C768.318125,554 765.333359,556.984766 765.333359,560.666641 L765.333359,576.54625 C763.2875,578.377344 762,581.038359 762,584 C762,589.522891 766.477188,594 772,594 C777.522812,594 782,589.522891 782,584 C782,581.038359 780.7125,578.377344 778.666641,576.546328 Z M772,590.666641 C768.318125,590.666641 765.333359,587.681875 765.333359,584 C765.333359,582.075234 766.149063,580.289688 767.556406,579.030078 L768.666719,578.036328 L768.666719,560.666641 C768.666719,558.825703 770.159141,557.333281 772.000078,557.333281 C773.841016,557.333281 775.333437,558.825625 775.333437,560.666641 L775.333437,578.036328 L776.44375,579.030078 C777.851094,580.289688 778.666797,582.075156 778.666797,584 C778.666641,587.681875 775.681875,590.666641 772,590.666641 Z M773.666719,561.786484 L773.666592,579.284483 C775.608618,579.970856 777,581.822941 777,584 C777,586.761424 774.761424,589 772,589 C769.238576,589 767,586.761424 767,584 C767,581.822941 768.391382,579.970856 770.333408,579.284483 L770.333359,561.786484 L773.666719,561.786484 Z" id="ico-max-temp"></path>
        </g>
    </g>
</svg>