<?xml version="1.0" encoding="UTF-8"?>
<svg width="60px" height="60px" viewBox="0 0 60 60" version="1.1" xmlns="http://www.w3.org/2000/svg" xmlns:xlink="http://www.w3.org/1999/xlink">
    <title>ico-temp-weather</title>
    <g id="travel-app" stroke="none" stroke-width="1" fill="none" fill-rule="evenodd">
        <g id="Desktop-HD-Copy" transform="translate(-458.000000, -541.000000)" fill="#FFFFFF" fill-rule="nonzero">
            <path d="M488.004459,554.937154 C479.084917,554.935951 471.853264,562.126563 471.851904,570.997895 C471.851299,575.259761 473.5537,579.347225 476.584071,582.360315 C479.608698,585.376111 483.717165,587.068559 487.999924,587.06316 C496.919467,587.06435 504.151271,579.873738 504.15248,571.002406 C504.153689,562.131073 496.924002,554.938357 488.004459,554.937154 Z M487.964509,592.509262 L488.084576,592.511696 C488.69059,592.556499 489.14544,593.081509 489.100544,593.684247 L489.100544,593.684247 L489.100544,599.824389 C489.104626,599.878363 489.104626,599.932488 489.100544,599.986462 C489.055498,600.589351 488.527787,601.041743 487.921622,600.99694 C487.315457,600.952136 486.860607,600.427277 486.905653,599.824389 L486.905653,599.824389 L486.905653,593.684247 C486.901572,593.630272 486.901572,593.576148 486.905653,593.522174 C486.9507,592.919285 487.478411,592.466893 488.084576,592.511696 Z M498.850427,589.706235 C499.372998,589.404039 500.043105,589.580395 500.346944,590.100142 L500.346944,590.100142 L503.436722,595.416386 C503.43778,595.41789 503.438687,595.419544 503.439594,595.421197 C503.741467,595.941997 503.561431,596.60758 503.037651,596.907821 C502.514928,597.207612 501.846786,597.030053 501.544157,596.510907 L501.544157,596.510907 L498.454379,591.194663 C498.150541,590.674916 498.327855,590.008431 498.850427,589.706235 Z M475.653056,590.100142 C475.956895,589.580395 476.627002,589.404039 477.149573,589.706235 C477.672145,590.008431 477.849459,590.674765 477.545621,591.194663 L477.545621,591.194663 L474.455843,596.510907 C474.152005,597.030654 473.481898,597.207011 472.959326,596.904814 C472.436755,596.602618 472.25944,595.936133 472.563278,595.416386 L472.563278,595.416386 Z M506.807815,581.79802 C507.111653,581.278273 507.78176,581.101917 508.304331,581.404113 L508.304331,581.404113 L513.649466,584.477191 C514.172038,584.779387 514.349352,585.445722 514.045514,585.965619 C513.741676,586.485366 513.071569,586.661722 512.548997,586.359526 L512.548997,586.359526 L507.203863,583.286448 C506.681291,582.984252 506.503976,582.317767 506.807815,581.79802 Z M467.69582,581.398099 C468.218391,581.095903 468.888498,581.272259 469.192336,581.792006 C469.496175,582.311753 469.31886,582.978088 468.796289,583.280435 L468.796289,583.280435 L463.451154,586.353513 C462.928582,586.655709 462.258475,586.479352 461.954637,585.959605 C461.650799,585.439858 461.828113,584.773373 462.350685,584.471177 L462.350685,584.471177 Z M497.867865,561.203587 C503.317907,566.624021 503.317907,575.412363 497.867865,580.832797 C492.417974,586.253232 483.581874,586.253232 478.131984,580.832797 C475.510358,578.225342 474.03969,574.687543 474.044513,571.00015 C474.039237,567.317869 475.510358,563.785483 478.131984,561.185545 L478.131984,561.203587 C483.581874,555.783152 492.417974,555.783152 497.867865,561.203587 Z M512.548997,555.646788 C513.071569,555.344592 513.741676,555.520948 514.045514,556.040695 C514.349352,556.560443 514.172038,557.226777 513.649466,557.529124 L513.649466,557.529124 L508.304331,560.602202 C507.78176,560.904398 507.111653,560.728041 506.807815,560.208294 C506.503976,559.688547 506.681291,559.022062 507.203863,558.719866 L507.203863,558.719866 Z M461.954637,556.040695 C462.258475,555.520948 462.928582,555.344592 463.451154,555.646788 L463.451154,555.646788 L468.796289,558.719866 C469.31886,559.022062 469.496175,559.688397 469.192336,560.208294 C468.888498,560.728041 468.218391,560.904398 467.69582,560.602202 L467.69582,560.602202 L462.350685,557.529124 C461.828113,557.226928 461.650799,556.560443 461.954637,556.040695 Z M501.580587,545.489393 C501.884426,544.969646 502.554533,544.79329 503.077104,545.095486 C503.599676,545.397682 503.77699,546.064017 503.473152,546.583914 L503.473152,546.583914 L500.383374,551.900159 C500.382467,551.901662 500.381409,551.903316 500.380502,551.90497 C500.076059,552.424416 499.405952,552.59987 498.883834,552.297073 L498.883834,552.297073 L498.882322,552.296171 C498.3596,551.991118 498.184855,551.324182 498.490809,550.805638 L498.490809,550.805638 Z M472.959326,545.095486 C473.481898,544.79329 474.152005,544.969646 474.455843,545.489393 L474.455843,545.489393 L477.539574,550.805638 C477.843413,551.325385 477.666098,551.99172 477.143527,552.294066 C476.620955,552.596262 475.950848,552.419906 475.64701,551.900159 L475.64701,551.900159 L472.563278,546.583914 C472.25944,546.064167 472.436755,545.397682 472.959326,545.095486 Z M487.964509,541.000626 L488.084576,541.00306 C488.69059,541.047864 489.14544,541.572873 489.100544,542.175761 L489.100544,542.175761 L489.100544,548.309739 C489.100544,548.914282 488.607903,549.40426 488.000076,549.40426 C487.397085,549.400953 486.908979,548.915485 486.905653,548.315753 L486.905653,548.315753 L486.905653,542.175611 C486.901572,542.121637 486.901572,542.067512 486.905653,542.013538 C486.9507,541.410649 487.478411,540.958257 488.084576,541.00306 Z M465.274032,569.908599 L465.355509,569.911643 C465.961674,569.956296 466.416525,570.481305 466.371478,571.084194 C466.326431,571.687083 465.79872,572.139474 465.192555,572.094671 L465.192555,572.094671 L459.019046,572.094671 C458.475462,572.054529 458.043438,571.624689 458.003077,571.084194 C457.95803,570.481456 458.412881,569.956446 459.019046,569.911643 L459.019046,569.911643 L465.192555,569.911643 C465.246823,569.907584 465.301242,569.907584 465.355509,569.911643 Z M488.081553,561.284736 L488.16303,561.287781 C488.769194,561.332433 489.224045,561.857443 489.178998,562.460331 C489.133952,563.06322 488.60624,563.515612 488.000076,563.470809 L488.000076,563.470809 L487.987983,563.470809 C483.810433,563.474116 480.426491,566.845181 480.429817,571.00015 C480.429817,571.602287 479.940804,572.091364 479.335395,572.094671 C478.727567,572.094671 478.234926,571.604693 478.234926,571.00015 C478.234926,565.636096 482.606871,561.287781 488.000076,561.287781 C488.054343,561.283721 488.108762,561.283721 488.16303,561.287781 Z M510.687378,569.903045 L510.807445,569.905479 L516.980954,569.905479 C517.524538,569.945622 517.956562,570.375462 517.996923,570.915956 C518.04197,571.518845 517.587119,572.043854 516.981105,572.088507 L516.981105,572.088507 L510.807596,572.088507 C510.753328,572.092566 510.698758,572.092566 510.644491,572.088507 C510.038326,572.043704 509.583475,571.518845 509.628522,570.915956 C509.673569,570.313068 510.20128,569.860676 510.807445,569.905479 Z" id="ico-temp-weather"></path>
        </g>
    </g>
</svg>