<?xml version="1.0" encoding="UTF-8"?>
<svg width="10px" height="20px" viewBox="0 0 10 20" version="1.1" xmlns="http://www.w3.org/2000/svg" xmlns:xlink="http://www.w3.org/1999/xlink">
    <title>ico-temp</title>
    <g id="travel-app" stroke="none" stroke-width="1" fill="none" fill-rule="evenodd">
        <g id="Mobile-Copy" transform="translate(-162.000000, -551.000000)" fill="#FFFFFF" fill-rule="nonzero">
            <path d="M170.33332,562.273164 L170.33332,554.33332 C170.33332,552.492383 168.840937,551 167,551 C165.159063,551 163.66668,552.492383 163.66668,554.33332 L163.66668,562.273125 C162.64375,563.188672 162,564.51918 162,566 C162,568.761445 164.238594,571 167,571 C169.761406,571 172,568.761445 172,566 C172,564.51918 171.35625,563.188672 170.33332,562.273164 Z M167,569.33332 C165.159063,569.33332 163.66668,567.840937 163.66668,566 C163.66668,565.037617 164.074531,564.144844 164.778203,563.515039 L165.333359,563.018164 L165.333359,554.33332 C165.333359,553.412852 166.07957,552.666641 167.000039,552.666641 C167.920508,552.666641 168.666719,553.412812 168.666719,554.33332 L168.666719,563.018164 L169.221875,563.515039 C169.925547,564.144844 170.333398,565.037578 170.333398,566 C170.33332,567.840937 168.840937,569.33332 167,569.33332 Z M167.833359,557.66668 L167.833605,563.642351 C168.804457,563.985624 169.5,564.911586 169.5,566 C169.5,567.380712 168.380712,568.5 167,568.5 C165.619288,568.5 164.5,567.380712 164.5,566 C164.5,564.911586 165.195543,563.985624 166.166395,563.642351 L166.16668,557.66668 L167.833359,557.66668 Z" id="ico-temp"></path>
        </g>
    </g>
</svg>