<?xml version="1.0" encoding="UTF-8"?>
<svg width="50px" height="50px" viewBox="0 0 50 50" version="1.1" xmlns="http://www.w3.org/2000/svg" xmlns:xlink="http://www.w3.org/1999/xlink">
    <title>ico-calendar</title>
    <g id="travel-app" stroke="none" stroke-width="1" fill="none" fill-rule="evenodd">
        <g id="Desktop-HD-Copy" transform="translate(-158.000000, -546.000000)" fill="#FFFFFF" fill-rule="nonzero">
            <path d="M195.695312,546 C196.774023,546 197.648438,546.874414 197.648438,547.953125 L197.648438,547.953125 L197.648438,549.90625 L200.1875,549.90625 C204.495313,549.90625 208,553.410938 208,557.71875 L208,557.71875 L208,578.421875 C208,579.500586 207.125586,580.375 206.046875,580.375 C204.968164,580.375 204.09375,579.500586 204.09375,578.421875 L204.09375,578.421875 L204.09375,557.71875 C204.09375,555.564844 202.341406,553.8125 200.1875,553.8125 L200.1875,553.8125 L197.648438,553.8125 L197.648438,555.765625 C197.648438,556.844336 196.774023,557.71875 195.695312,557.71875 C194.616602,557.71875 193.742188,556.844336 193.742188,555.765625 L193.742188,555.765625 L193.742188,553.8125 L184.855469,553.8125 L184.855469,555.765625 C184.855469,556.844336 183.981055,557.71875 182.902344,557.71875 C181.823633,557.71875 180.949219,556.844336 180.949219,555.765625 L180.949219,555.765625 L180.949219,553.8125 L172.160156,553.8125 L172.160156,555.765625 C172.160156,556.844336 171.285742,557.71875 170.207031,557.71875 C169.12832,557.71875 168.253906,556.844336 168.253906,555.765625 L168.253906,555.765625 L168.253906,553.8125 L165.8125,553.8125 C163.658594,553.8125 161.90625,555.564844 161.90625,557.71875 L161.90625,557.71875 L161.90625,588.1875 C161.90625,590.341406 163.658594,592.09375 165.8125,592.09375 L165.8125,592.09375 L200.1875,592.09375 C202.341406,592.09375 204.09375,590.341406 204.09375,588.1875 C204.09375,587.108789 204.968164,586.234375 206.046875,586.234375 C207.125586,586.234375 208,587.108789 208,588.1875 C208,592.495312 204.495313,596 200.1875,596 L200.1875,596 L165.8125,596 C161.504687,596 158,592.495312 158,588.1875 L158,588.1875 L158,557.71875 C158,553.410938 161.504687,549.90625 165.8125,549.90625 L165.8125,549.90625 L168.253906,549.90625 L168.253906,547.953125 C168.253906,546.874414 169.12832,546 170.207031,546 C171.285742,546 172.160156,546.874414 172.160156,547.953125 L172.160156,547.953125 L172.160156,549.90625 L180.949219,549.90625 L180.949219,547.953125 C180.949219,546.874414 181.823633,546 182.902344,546 C183.981055,546 184.855469,546.874414 184.855469,547.953125 L184.855469,547.953125 L184.855469,549.90625 L193.742188,549.90625 L193.742188,547.953125 C193.742188,546.874414 194.616602,546 195.695312,546 Z M170.207031,581.546875 C171.285712,581.546875 172.160156,582.421319 172.160156,583.5 C172.160156,584.578681 171.285712,585.453125 170.207031,585.453125 C169.12835,585.453125 168.253906,584.578681 168.253906,583.5 C168.253906,582.421319 169.12835,581.546875 170.207031,581.546875 Z M178.703125,581.546875 C179.781806,581.546875 180.65625,582.421319 180.65625,583.5 C180.65625,584.578681 179.781806,585.453125 178.703125,585.453125 C177.624444,585.453125 176.75,584.578681 176.75,583.5 C176.75,582.421319 177.624444,581.546875 178.703125,581.546875 Z M187.199219,581.546875 C188.2779,581.546875 189.152344,582.421319 189.152344,583.5 C189.152344,584.578681 188.2779,585.453125 187.199219,585.453125 C186.120538,585.453125 185.246094,584.578681 185.246094,583.5 C185.246094,582.421319 186.120538,581.546875 187.199219,581.546875 Z M170.207031,573.050781 C171.285712,573.050781 172.160156,573.925225 172.160156,575.003906 C172.160156,576.082587 171.285712,576.957031 170.207031,576.957031 C169.12835,576.957031 168.253906,576.082587 168.253906,575.003906 C168.253906,573.925225 169.12835,573.050781 170.207031,573.050781 Z M178.703125,573.050781 C179.781806,573.050781 180.65625,573.925225 180.65625,575.003906 C180.65625,576.082587 179.781806,576.957031 178.703125,576.957031 C177.624444,576.957031 176.75,576.082587 176.75,575.003906 C176.75,573.925225 177.624444,573.050781 178.703125,573.050781 Z M187.199219,573.050781 C188.2779,573.050781 189.152344,573.925225 189.152344,575.003906 C189.152344,576.082587 188.2779,576.957031 187.199219,576.957031 C186.120538,576.957031 185.246094,576.082587 185.246094,575.003906 C185.246094,573.925225 186.120538,573.050781 187.199219,573.050781 Z M195.695312,573.050781 C196.773994,573.050781 197.648438,573.925225 197.648438,575.003906 C197.648438,576.082587 196.773994,576.957031 195.695312,576.957031 C194.616631,576.957031 193.742188,576.082587 193.742188,575.003906 C193.742188,573.925225 194.616631,573.050781 195.695312,573.050781 Z M170.207031,564.554688 C171.285712,564.554688 172.160156,565.429131 172.160156,566.507812 C172.160156,567.586494 171.285712,568.460938 170.207031,568.460938 C169.12835,568.460938 168.253906,567.586494 168.253906,566.507812 C168.253906,565.429131 169.12835,564.554688 170.207031,564.554688 Z M187.199219,564.554688 C188.2779,564.554688 189.152344,565.429131 189.152344,566.507812 C189.152344,567.586494 188.2779,568.460938 187.199219,568.460938 C186.120538,568.460938 185.246094,567.586494 185.246094,566.507812 C185.246094,565.429131 186.120538,564.554688 187.199219,564.554688 Z M195.695312,564.554688 C196.773994,564.554688 197.648438,565.429131 197.648438,566.507812 C197.648438,567.586494 196.773994,568.460938 195.695312,568.460938 C194.616631,568.460938 193.742188,567.586494 193.742188,566.507812 C193.742188,565.429131 194.616631,564.554688 195.695312,564.554688 Z M178.703125,564.554688 C179.781806,564.554688 180.65625,565.429131 180.65625,566.507812 C180.65625,567.586494 179.781806,568.460938 178.703125,568.460938 C177.624444,568.460938 176.75,567.586494 176.75,566.507812 C176.75,565.429131 177.624444,564.554688 178.703125,564.554688 Z" id="ico-calendar"></path>
        </g>
    </g>
</svg>