<?xml version="1.0" encoding="UTF-8"?>
<svg width="39px" height="39px" viewBox="0 0 39 39" version="1.1" xmlns="http://www.w3.org/2000/svg" xmlns:xlink="http://www.w3.org/1999/xlink">
    <title>ico-search</title>
    <g id="Symbols" stroke="none" stroke-width="1" fill="none" fill-rule="evenodd">
        <g id="main-menu" transform="translate(-183.000000, 0.000000)" fill="#FFFFFF">
            <path d="M202.5,0 C213.269553,0 222,8.73044738 222,19.5 C222,30.2695526 213.269553,39 202.5,39 C191.730447,39 183,30.2695526 183,19.5 C183,8.73044738 191.730447,0 202.5,0 Z M194.383349,13.1761901 C191.983145,16.5662997 192.785507,21.2600329 196.17619,23.6602373 C198.595894,25.3733582 201.79502,25.5052691 204.347209,23.998044 L209.892627,29.510198 C210.491388,30.1405026 211.487602,30.1657377 212.117906,29.5669771 C212.748211,28.9687899 212.773446,27.972576 212.175259,27.3422715 C212.156333,27.3221981 212.13798,27.3038453 212.117906,27.2849188 L206.660237,21.86797 C209.061015,18.4778605 208.25808,13.7835537 204.86797,11.3833493 C201.47786,8.9831449 196.783554,9.78550704 194.383349,13.1761901 Z M200.513764,12.6812372 C203.189261,12.6800906 205.360055,14.8468702 205.365224,17.5223669 C205.369805,20.2018783 203.200731,22.3772607 200.520646,22.381849 L200.517205,22.381849 C197.838267,22.3824225 195.666326,20.2122018 195.664605,17.5332639 C195.664032,14.854326 197.834253,12.6823847 200.513764,12.6812372 Z" id="ico-search"></path>
        </g>
    </g>
</svg>