<?xml version="1.0" encoding="UTF-8"?>
<svg width="85px" height="87px" viewBox="0 0 85 87" version="1.1" xmlns="http://www.w3.org/2000/svg" xmlns:xlink="http://www.w3.org/1999/xlink">
    <title>r01d</title>
    <g id="Page-1" stroke="none" stroke-width="1" fill="none" fill-rule="evenodd" stroke-linecap="round" stroke-linejoin="round">
        <g id="r01d" transform="translate(2.000000, 2.000000)" stroke="#FFFFFF" stroke-width="3.9999999">
            <path d="M68.8946649,30.5679992 C75.8026648,29.0186659 80.963998,22.8466661 80.963998,15.4719996 C80.963998,6.92799983 74.0359981,2.84217094e-14 65.490665,2.84217094e-14 L15.4719996,2.84217094e-14 C6.92666649,2.84217094e-14 1.42108547e-14,6.07866651 1.42108547e-14,14.625333 C1.42108547e-14,21.9319995 5.06799987,28.0599993 11.881333,29.6773326 C11.4599997,30.9253326 11.2333331,32.2613325 11.2333331,33.6519992 C11.2333331,40.5293323 16.8093329,46.1039988 23.6879994,46.1039988 C27.102666,46.1039988 30.1959992,44.7319989 32.4453325,42.5079989 L32.4466659,42.5079989 C35.4786658,49.1879988 42.2053323,53.833332 50.0199987,53.833332 C60.6706651,53.833332 69.3066649,45.1986655 69.3066649,34.5466658 C69.3066649,33.1826658 68.8946649,30.5653326 68.8946649,30.5653326 L68.8946649,30.5679992 Z" id="path586" transform="translate(40.481999, 26.916666) scale(-1, 1) rotate(-180.000000) translate(-40.481999, -26.916666) "></path>
            <line x1="19.9694662" y1="72.8199982" x2="18.6361329" y2="63.3773317" id="path590" transform="translate(19.302800, 68.098665) scale(-1, 1) rotate(-180.000000) translate(-19.302800, -68.098665) "></line>
            <line x1="33.8027992" y1="82.1533313" x2="31.1361326" y2="63.3773317" id="path594" transform="translate(32.469466, 72.765332) scale(-1, 1) rotate(-180.000000) translate(-32.469466, -72.765332) "></line>
            <line x1="48.1289321" y1="82.1533313" x2="45.4622655" y2="63.3773317" id="path598" transform="translate(46.795599, 72.765332) scale(-1, 1) rotate(-180.000000) translate(-46.795599, -72.765332) "></line>
            <line x1="61.9622651" y1="72.8199982" x2="60.6289318" y2="63.3773317" id="path602" transform="translate(61.295598, 68.098665) scale(-1, 1) rotate(-180.000000) translate(-61.295598, -68.098665) "></line>
        </g>
    </g>
</svg>