<?xml version="1.0" encoding="UTF-8"?>
<svg width="73px" height="82px" viewBox="0 0 73 82" version="1.1" xmlns="http://www.w3.org/2000/svg" xmlns:xlink="http://www.w3.org/1999/xlink">
    <title>s01n</title>
    <g id="Page-1" stroke="none" stroke-width="1" fill="none" fill-rule="evenodd" stroke-linecap="round" stroke-linejoin="round">
        <g id="s01n" transform="translate(2.000000, 2.000000)" stroke="#FFFFFF" stroke-width="3.9999999">
            <line x1="11.2137331" y1="70.5914649" x2="10.1803997" y2="63.2687984" id="path606" transform="translate(10.697066, 66.930132) scale(-1, 1) rotate(-180.000000) translate(-10.697066, -66.930132) "></line>
            <line x1="21.9389328" y1="77.8261314" x2="19.8709328" y2="63.2687984" id="path610" transform="translate(20.904933, 70.547465) scale(-1, 1) rotate(-180.000000) translate(-20.904933, -70.547465) "></line>
            <line x1="33.0470658" y1="77.8261314" x2="30.9790659" y2="63.2687984" id="path614" transform="translate(32.013066, 70.547465) scale(-1, 1) rotate(-180.000000) translate(-32.013066, -70.547465) "></line>
            <line x1="43.7710656" y1="70.5914649" x2="42.7377323" y2="63.2687984" id="path618" transform="translate(43.254399, 66.930132) scale(-1, 1) rotate(-180.000000) translate(-43.254399, -66.930132) "></line>
            <path d="M46.1186655,38.370399 C50.7426654,37.3317324 54.1986653,33.2010658 54.1986653,28.2637326 C54.1986653,22.5450661 49.5599988,17.9063996 43.8413322,17.9063996 L10.3573331,17.9063996 C4.63866655,17.9063996 4.26325641e-14,21.9770661 4.26325641e-14,27.6957326 C4.26325641e-14,32.5890659 3.39333325,36.6903991 7.95333313,37.7743991 C7.67199981,38.6077324 7.52133315,39.5037323 7.52133315,40.4330657 C7.52133315,45.0370655 11.2533331,48.7717321 15.8573329,48.7717321 C18.1439995,48.7717321 20.2133328,47.8490655 21.7199995,46.3597322 L21.7213328,46.3623988 C23.7506661,50.8343987 28.2533326,53.943732 33.4839992,53.943732 C40.6133323,53.943732 46.3946655,48.1623988 46.3946655,41.034399 C46.3946655,40.1197323 46.1186655,38.3677324 46.1186655,38.3677324 L46.1186655,38.370399 Z" id="path690" transform="translate(27.099333, 35.925066) scale(-1, 1) rotate(-180.000000) translate(-27.099333, -35.925066) "></path>
            <path d="M49.8413321,-1.77635684e-14 C59.2719985,-1.77635684e-14 68.250665,7.64533314 68.250665,17.0786662 C68.250665,17.1586662 68.2399983,17.2346662 68.238665,17.3146662 C65.910665,14.4586663 62.3679984,12.6306664 58.3946652,12.6306664 C51.381332,12.6306664 45.6973322,18.3146662 45.6973322,25.3279994 C45.6973322,28.6973326 47.0186655,31.7493325 49.1586654,34.0239991 C40.679999,33.0266658 34.0986658,27.158666 34.0986658,18.4119995" id="path694" transform="translate(51.174665, 17.012000) scale(-1, 1) rotate(-180.000000) translate(-51.174665, -17.012000) "></path>
        </g>
    </g>
</svg>