<?xml version="1.0" encoding="UTF-8"?>
<svg width="86px" height="88px" viewBox="0 0 86 88" version="1.1" xmlns="http://www.w3.org/2000/svg" xmlns:xlink="http://www.w3.org/1999/xlink">
    <title>t01d</title>
    <g id="Page-1" stroke="none" stroke-width="1" fill="none" fill-rule="evenodd">
        <g id="t01d" transform="translate(2.000000, 2.000000)">
            <path d="M51.1973321,42.1610656 C56.3306653,41.0077323 60.1666652,36.4210658 60.1666652,30.9423995 C60.1666652,24.5903994 55.017332,19.4423995 48.6693321,19.4423995 L11.497333,19.4423995 C5.14666654,19.4423995 2.84217094e-14,23.9610661 2.84217094e-14,30.3117326 C2.84217094e-14,35.7423991 3.76533324,40.2970657 8.82799978,41.4970656 C8.51466645,42.4237323 8.34666646,43.4183989 8.34666646,44.4503989 C8.34666646,49.5623988 12.4919997,53.7050653 17.6039996,53.7050653 C20.1399995,53.7050653 22.4399994,52.6850653 24.1119994,51.0330654 C26.3639993,55.9970653 31.3639992,59.4503985 37.1706657,59.4503985 C45.0853322,59.4503985 51.5039987,53.0330653 51.5039987,45.1170655 C51.5039987,44.1010656 51.1973321,42.1583989 51.1973321,42.1583989 L51.1973321,42.1610656 Z" id="path662" stroke="#FFFFFF" stroke-width="3.9999999" stroke-linecap="round" stroke-linejoin="round" transform="translate(30.083333, 39.446399) scale(-1, 1) rotate(-180.000000) translate(-30.083333, -39.446399) "></path>
            <path d="M41.8118656,37.9929209 C43.8971989,40.3342542 46.7585322,42.0195875 50.0865321,42.6075875 C57.9505319,43.9982541 65.4531984,38.7502543 66.8451983,30.8862545 C67.995865,24.3862546 64.6091984,18.1315881 58.9571985,15.3729215" id="path666" stroke="#FFFFFF" stroke-width="3.9999999" stroke-linecap="round" stroke-linejoin="round" transform="translate(54.440394, 29.101927) scale(-1, 1) rotate(-180.000000) translate(-54.440394, -29.101927) "></path>
            <line x1="52.6347987" y1="-1.50990331e-14" x2="52.5987987" y2="5.61466653" id="path670" stroke="#FFFFFF" stroke-width="3.9999999" stroke-linecap="round" stroke-linejoin="round" transform="translate(52.616799, 2.807333) scale(-1, 1) rotate(-180.000000) translate(-52.616799, -2.807333) "></line>
            <line x1="76.3249314" y1="31.9978659" x2="81.9422646" y2="32.0338659" id="path674" stroke="#FFFFFF" stroke-width="3.9999999" stroke-linecap="round" stroke-linejoin="round" transform="translate(79.133598, 32.015866) scale(-1, 1) rotate(-180.000000) translate(-79.133598, -32.015866) "></line>
            <line x1="70.5410649" y1="8.77613311" x2="74.4863981" y2="12.7707997" id="path678" stroke="#FFFFFF" stroke-width="3.9999999" stroke-linecap="round" stroke-linejoin="round" transform="translate(72.513732, 10.773466) scale(-1, 1) rotate(-180.000000) translate(-72.513732, -10.773466) "></line>
            <line x1="33.3301325" y1="8.77613311" x2="29.3847993" y2="12.7707997" id="path682" stroke="#FFFFFF" stroke-width="3.9999999" stroke-linecap="round" stroke-linejoin="round" transform="translate(31.357466, 10.773466) scale(-1, 1) rotate(-180.000000) translate(-31.357466, -10.773466) "></line>
            <line x1="72.2858649" y1="48.3594655" x2="68.3405316" y2="52.3567987" id="path686" stroke="#FFFFFF" stroke-width="3.9999999" stroke-linecap="round" stroke-linejoin="round" transform="translate(70.313198, 50.358132) scale(-1, 1) rotate(-180.000000) translate(-70.313198, -50.358132) "></line>
            <polygon id="path530" fill="#FFFFFF" fill-rule="nonzero" transform="translate(28.000000, 72.734394) scale(-1, 1) rotate(-180.000000) translate(-28.000000, -72.734394) " points="23.4767685 85.2343936 14.3647619 73.7704349 23.1068117 73.6589064 13 60.2343936 43 76.9636727 32.4722532 77.019437 38.046366 85.2343936"></polygon>
            <polygon id="path534" stroke="#FFFFFF" stroke-width="1.46666663" stroke-linecap="round" stroke-linejoin="round" transform="translate(28.000000, 72.734394) scale(-1, 1) rotate(-180.000000) translate(-28.000000, -72.734394) " points="23.4767685 85.2343936 14.3647619 73.7704349 23.1068117 73.6589064 13 60.2343936 43 76.9636727 32.4722532 77.019437 38.046366 85.2343936"></polygon>
        </g>
    </g>
</svg>