<?xml version="1.0" encoding="UTF-8"?>
<svg width="85px" height="85px" viewBox="0 0 85 85" version="1.1" xmlns="http://www.w3.org/2000/svg" xmlns:xlink="http://www.w3.org/1999/xlink">
    <title>t04d</title>
    <g id="Page-1" stroke="none" stroke-width="1" fill="none" fill-rule="evenodd">
        <g id="t04d" transform="translate(2.000000, 2.000000)">
            <polygon id="path198" fill="#FFFFFF" fill-rule="nonzero" transform="translate(39.103999, 68.686398) scale(-1, 1) rotate(-180.000000) translate(-39.103999, -68.686398) " points="34.2213325 82.0750646 24.3879994 69.7950649 33.8213325 69.6777316 22.9159994 55.297732 55.2919986 73.2163982 43.9293322 73.2763982 49.9439988 82.0750646"></polygon>
            <path d="M68.554665,30.4159992 C75.4279981,28.8733326 80.563998,22.7333328 80.563998,15.3946663 C80.563998,6.89199983 73.6706648,0 65.1693317,0 L15.3959996,0 C6.89333316,0 -1.42108547e-14,6.04799985 -1.42108547e-14,14.5506663 C-1.42108547e-14,21.8239995 5.04399987,27.918666 11.8226664,29.5293326 C11.405333,30.7706659 11.1786664,32.0999992 11.1786664,33.4826658 C11.1786664,40.327999 16.7266662,45.8759989 23.5719994,45.8759989 C26.9693327,45.8759989 30.0466659,44.5093322 32.2866659,42.2959989 L32.2866659,42.2959989 C35.3039991,48.9439988 41.9973323,53.5666653 49.7733321,53.5666653 C60.3719985,53.5666653 68.9653316,44.9746655 68.9653316,34.3759991 C68.9653316,33.0173325 68.554665,30.4133326 68.554665,30.4133326 L68.554665,30.4159992 Z" id="path206" stroke="#FFFFFF" stroke-width="3.9999999" stroke-linecap="round" stroke-linejoin="round" transform="translate(40.281999, 26.783333) scale(-1, 1) rotate(-180.000000) translate(-40.281999, -26.783333) "></path>
        </g>
    </g>
</svg>