<?xml version="1.0" encoding="UTF-8"?>
<svg width="366px" height="109px" viewBox="0 0 366 109" version="1.1" xmlns="http://www.w3.org/2000/svg" xmlns:xlink="http://www.w3.org/1999/xlink">
    <title>Group</title>
    <defs>
        <linearGradient x1="50%" y1="0%" x2="50%" y2="100%" id="linearGradient-1">
            <stop stop-color="#E9C46A" offset="0%"></stop>
            <stop stop-color="#E76F51" offset="100%"></stop>
        </linearGradient>
    </defs>
    <g id="travel-app" stroke="none" stroke-width="1" fill="none" fill-rule="evenodd">
        <g id="Desktop-HD" transform="translate(-535.000000, -257.000000)" fill-rule="nonzero">
            <g id="Group" transform="translate(535.000000, 257.000000)">
                <path d="M143.388564,98.0115668 C145.053279,98.0115668 146.487768,97.9064143 147.692031,97.6961094 L147.692031,97.6961094 L147.692031,72.617245 L147.638901,68.7266036 L147.692031,68.7266036 L151.039172,68.7791798 L152.579919,68.7791798 C154.138376,68.7791798 155.271799,68.4900105 155.980189,67.9116719 C156.688579,67.3333333 157.042774,66.3957238 157.042774,65.0988433 C157.042774,63.8019628 156.901096,62.6978619 156.61774,61.7865405 L156.61774,61.7865405 L130.318775,61.7865405 C130.106258,62.8030144 130,63.9684543 130,65.2828601 C130,66.597266 130.106258,67.7627059 130.318775,68.7791798 L130.318775,68.7791798 L135.791085,68.7791798 L139.191355,68.7266036 L139.191355,97.6961094 C140.324779,97.9064143 141.723848,98.0115668 143.388564,98.0115668 Z M162.329131,98.0115668 C163.905298,98.0115668 165.277803,97.9064143 166.446646,97.6961094 L166.446646,97.6961094 L166.446646,81.3449001 C167.580069,79.5573081 169.032268,78.6635121 170.803242,78.6635121 C172.007504,78.8037154 172.910701,78.9789695 173.512832,79.1892744 C174.150383,78.1377497 174.65511,76.8671574 175.027015,75.3774974 C175.398919,73.8878374 175.584872,72.5997196 175.584872,71.5131441 C174.168092,71.2327375 172.99925,71.0925342 172.078343,71.0925342 C168.996848,71.0925342 166.783131,72.6698212 165.43719,75.8243954 C164.162089,72.8801262 161.895242,71.2853137 158.63665,71.0399579 C158.140777,71.425517 157.644905,72.0476691 157.149032,72.9064143 C156.653159,73.7651595 156.316674,74.5450403 156.139577,75.2460568 C157.485517,76.2625307 158.158487,78.0851735 158.158487,80.7139853 L158.158487,80.7139853 L158.158487,97.6961094 C159.36275,97.9064143 160.752964,98.0115668 162.329131,98.0115668 Z M185.041873,98.4847529 C187.733754,98.4847529 190.230827,97.4332282 192.533093,95.3301788 C193.879033,97.1177708 195.791685,98.0466176 198.271049,98.1167192 C198.802341,97.7311602 199.315924,97.1177708 199.811796,96.276551 C200.307669,95.4353312 200.644154,94.6466877 200.821252,93.9106204 C199.829506,93.2446547 199.333633,92.105503 199.333633,90.4931651 L199.333633,90.4931651 L199.333633,79.8201893 C199.333633,78.2429022 199.076842,76.8846828 198.56326,75.745531 C198.049677,74.6063792 197.358997,73.6775324 196.49122,72.9589905 C195.623443,72.2404487 194.613988,71.7059236 193.462855,71.3554154 C192.311721,71.0049071 191.116314,70.829653 189.876632,70.829653 C189.026565,70.829653 188.070239,70.8909919 187.007654,71.0136698 C185.94507,71.1363477 184.864776,71.3028391 183.766772,71.5131441 C182.668768,71.723449 181.597329,71.9688048 180.552454,72.2492114 C179.507579,72.5296179 178.560108,72.8275499 177.710041,73.1430074 C177.993396,75.7367683 178.666367,77.6470382 179.728951,78.873817 C183.447996,77.7521907 186.051328,77.1913775 187.538946,77.1913775 C189.841213,77.1913775 190.992346,78.2954784 190.992346,80.5036803 L190.992346,80.5036803 L190.992346,81.5026288 C190.531893,81.467578 189.991745,81.4412899 189.371905,81.4237645 C188.752064,81.406239 188.034819,81.3974763 187.220171,81.3974763 C185.767972,81.3974763 184.404322,81.5902559 183.129221,81.9758149 C181.85412,82.361374 180.738406,82.9309499 179.78208,83.6845426 C178.825754,84.4381353 178.07309,85.3845075 177.524088,86.5236593 C176.975086,87.6628111 176.700585,88.9859797 176.700585,90.4931651 C176.700585,91.5446898 176.877683,92.552401 177.231878,93.5162986 C177.586072,94.4801963 178.117365,95.3301788 178.825754,96.0662461 C179.534144,96.8023134 180.401921,97.3894147 181.429086,97.8275499 C182.456251,98.2656852 183.660513,98.4847529 185.041873,98.4847529 Z M187.645205,92.4384858 C185.732553,92.4384858 184.776227,91.6147914 184.776227,89.9674027 C184.776227,87.72415 185.891941,86.6025237 188.123368,86.6025237 C188.371304,86.6025237 188.734354,86.6112864 189.212517,86.6288118 C189.69068,86.6463372 190.283956,86.6726253 190.992346,86.7076761 L190.992346,86.7076761 L190.992346,90.913775 C189.752664,91.9302489 188.63695,92.4384858 187.645205,92.4384858 Z M213.970734,98.0115668 C215.971935,98.0115668 217.875732,97.9064143 219.682125,97.6961094 C220.992646,93.7353663 223.4543,85.2355415 227.067087,72.1966351 L227.067087,72.1966351 L226.801441,71.8286015 C225.668017,71.4079916 224.339787,71.1976866 222.816749,71.1976866 C221.577067,71.1976866 220.461354,71.3028391 219.469608,71.5131441 L219.469608,71.5131441 L214.847366,91.4395373 C214.528591,91.4395373 214.351493,91.299334 214.316074,91.0189274 C213.713943,87.4437434 213.324328,85.3231686 213.147231,84.6572029 L213.147231,84.6572029 L210.756416,74.8254469 C210.402221,73.423414 209.853219,72.4332282 209.10941,71.8548896 C208.365601,71.276551 207.320726,70.9873817 205.974786,70.9873817 C204.628846,70.9873817 203.088098,71.3554154 201.352544,72.0914826 L201.352544,72.0914826 L207.72805,94.0683491 C208.188504,95.6105853 208.843764,96.6533474 209.693832,97.1966351 C210.543899,97.7399229 211.969533,98.0115668 213.970734,98.0115668 Z M239.871229,98.4847529 C243.979889,98.4847529 247.450998,97.4858044 250.284557,95.4879075 C250.001201,93.4549597 249.275101,91.8426218 248.106258,90.6508938 C246.65406,91.211707 245.370104,91.6147914 244.25439,91.8601472 C243.138676,92.105503 242.155786,92.2281809 241.305718,92.2281809 C239.605583,92.2281809 238.383611,91.7900456 237.639802,90.913775 C236.895993,90.0375044 236.488669,88.8107256 236.41783,87.2334385 L236.41783,87.2334385 L250.284557,87.2334385 C250.74501,85.7613039 250.975236,83.9561865 250.975236,81.8180862 C250.975236,80.2057483 250.718445,78.7160883 250.204863,77.3491062 C249.69128,75.9821241 248.956326,74.8079215 248,73.8264984 C247.043674,72.8450754 245.883686,72.0739572 244.520036,71.5131441 C243.156386,70.9523309 241.624493,70.6719243 239.924358,70.6719243 C237.905448,70.6719243 236.143329,71.0224325 234.638001,71.723449 C233.132673,72.4244655 231.892991,73.3883631 230.918955,74.615142 C229.94492,75.8419208 229.21882,77.2877673 228.740657,78.9526814 C228.262494,80.6175955 228.023413,82.4314756 228.023413,84.3943218 C228.023413,86.4272695 228.21822,88.3024886 228.607834,90.019979 C228.997449,91.7374693 229.661564,93.2271293 230.60018,94.488959 C231.538796,95.7507886 232.760768,96.7322117 234.266096,97.4332282 C235.771424,98.1342447 237.639802,98.4847529 239.871229,98.4847529 Z M243.377758,81.555205 L236.364701,81.555205 C236.470959,79.767613 236.798589,78.4794953 237.347591,77.6908517 C237.896593,76.9022082 238.737806,76.5078864 239.871229,76.5078864 C241.040072,76.5078864 241.916704,76.9284963 242.501126,77.7697161 C243.085547,78.6109359 243.377758,79.679986 243.377758,80.9768665 L243.377758,80.9768665 L243.377758,81.555205 Z M262.610536,97.9589905 C264.275251,97.9589905 266.170194,97.7837364 268.295362,97.4332282 C268.401621,97.0827199 268.45475,96.3291272 268.45475,95.1724501 C268.45475,94.0157729 268.242233,92.8590957 267.817199,91.7024185 L267.817199,91.7024185 L266.38271,91.7024185 C264.824253,91.7024185 264.045025,90.8787242 264.045025,89.2313354 L264.045025,89.2313354 L264.045025,63.9421661 C264.045025,62.1195233 263.70854,60.8401682 263.03557,60.1041009 C262.362599,59.3680336 261.193757,59 259.529041,59 L259.529041,59 L256.288158,59 L255.969383,59.3680336 L255.969383,90.6508938 C255.969383,93.1745531 256.474111,95.0234841 257.483566,96.1976866 C258.493021,97.3718892 260.202011,97.9589905 262.610536,97.9589905 Z M309.311121,98.0115668 C310.161189,98.0115668 310.869578,97.8363127 311.43629,97.4858044 L311.43629,97.4858044 L299.269698,61.7865405 C298.809245,61.681388 298.083146,61.6288118 297.0914,61.6288118 C296.099655,61.6288118 295.302716,61.681388 294.700585,61.7865405 L294.700585,61.7865405 L282.533994,97.4858044 L282.640252,97.6435331 C283.348642,97.8187872 284.039322,97.9064143 284.712292,97.9064143 C285.385262,97.9064143 285.951974,97.8538381 286.412427,97.7486856 L286.412427,97.7486856 L289.493922,88.3375394 L293.212967,88.3901157 L300.332283,88.3901157 L304.051328,88.3375394 L306.601531,95.9085174 C306.849467,96.7497371 307.150533,97.3105503 307.504728,97.5909569 C307.858922,97.8713635 308.461054,98.0115668 309.311121,98.0115668 Z M302.935615,84.9200841 C302.58142,84.9200841 301.988143,84.9113214 301.155786,84.893796 C300.323428,84.8762706 299.889539,84.8675079 299.85412,84.8675079 L299.85412,84.8675079 L293.744259,84.8675079 L290.662765,84.9200841 L294.806844,72.4069401 C295.338136,70.829653 295.940267,68.744129 296.613237,66.150368 L296.613237,66.150368 L296.878883,66.150368 C297.339337,67.9029092 298.242533,70.829653 299.588474,74.9305994 L299.588474,74.9305994 L302.935615,84.9200841 Z M319.246285,109 C320.096353,109 320.663065,108.798458 320.946421,108.395373 C321.229776,107.992289 321.371454,107.31756 321.371454,106.371188 L321.371454,106.371188 L321.371454,95.9610936 C323.567462,97.3981774 325.887438,98.1167192 328.331382,98.1167192 C329.571064,98.1167192 330.775326,97.8100245 331.944169,97.1966351 C333.113012,96.5832457 334.149032,95.7069751 335.052229,94.5678233 C335.955425,93.4286716 336.681525,92.0354013 337.230527,90.3880126 C337.779529,88.7406239 338.05403,86.8829302 338.05403,84.8149317 C338.05403,80.573782 337.292511,77.2527164 335.769473,74.851735 C334.246436,72.4507536 331.979589,71.2502629 328.968933,71.2502629 C326.029116,71.2502629 323.496623,72.4244655 321.371454,74.7728707 L321.371454,74.7728707 L321.371454,74.5099895 C321.371454,73.5285664 321.220922,72.8187872 320.919856,72.3806519 C320.61879,71.9425166 320.043224,71.723449 319.193156,71.723449 L319.193156,71.723449 L317.811796,71.723449 L317.493021,72.0389064 L317.493021,108.684543 L317.811796,109 L319.246285,109 Z M327.481315,94.7518402 C325.568663,94.7518402 323.532043,93.9631966 321.371454,92.3859096 L321.371454,92.3859096 L321.371454,78.873817 C322.221522,77.5418857 323.284106,76.5078864 324.559208,75.7718191 C325.834309,75.0357518 327.180249,74.6677182 328.597028,74.6677182 C329.340837,74.6677182 330.040372,74.8692604 330.695633,75.2723449 C331.350893,75.6754294 331.92646,76.2888188 332.422332,77.1125131 C332.918205,77.9362075 333.316674,78.9702068 333.61774,80.214511 C333.918805,81.4588153 334.069338,82.9221872 334.069338,84.6046267 C334.069338,88.0045566 333.449497,90.5457413 332.209815,92.2281809 C330.970134,93.9106204 329.393967,94.7518402 327.481315,94.7518402 Z M347.192256,109 C348.042323,109 348.609035,108.798458 348.892391,108.395373 C349.175747,107.992289 349.317425,107.31756 349.317425,106.371188 L349.317425,106.371188 L349.317425,95.9610936 C351.513432,97.3981774 353.833408,98.1167192 356.277353,98.1167192 C357.517034,98.1167192 358.721297,97.8100245 359.89014,97.1966351 C361.058982,96.5832457 362.095002,95.7069751 362.998199,94.5678233 C363.901396,93.4286716 364.627495,92.0354013 365.176497,90.3880126 C365.725499,88.7406239 366,86.8829302 366,84.8149317 C366,80.573782 365.238481,77.2527164 363.715443,74.851735 C362.192406,72.4507536 359.925559,71.2502629 356.914903,71.2502629 C353.975086,71.2502629 351.442593,72.4244655 349.317425,74.7728707 L349.317425,74.7728707 L349.317425,74.5099895 C349.317425,73.5285664 349.166892,72.8187872 348.865826,72.3806519 C348.564761,71.9425166 347.989194,71.723449 347.139127,71.723449 L347.139127,71.723449 L345.757767,71.723449 L345.438991,72.0389064 L345.438991,108.684543 L345.757767,109 L347.192256,109 Z M355.427285,94.7518402 C353.514633,94.7518402 351.478013,93.9631966 349.317425,92.3859096 L349.317425,92.3859096 L349.317425,78.873817 C350.167492,77.5418857 351.230077,76.5078864 352.505178,75.7718191 C353.780279,75.0357518 355.126219,74.6677182 356.542999,74.6677182 C357.286808,74.6677182 357.986342,74.8692604 358.641603,75.2723449 C359.296863,75.6754294 359.87243,76.2888188 360.368303,77.1125131 C360.864175,77.9362075 361.262644,78.9702068 361.56371,80.214511 C361.864776,81.4588153 362.015308,82.9221872 362.015308,84.6046267 C362.015308,88.0045566 361.395468,90.5457413 360.155786,92.2281809 C358.916104,93.9106204 357.339937,94.7518402 355.427285,94.7518402 Z" id="TravelApp" fill="#E9C46A"></path>
                <path d="M44.3841077,30.9792635 L48.012902,30.9808867 L51.0377718,26.3700101 L56.862251,26.4101823 L53.195106,39.1192076 L53.195106,39.4198904 C53.195106,41.0247498 54.4941893,42.3313609 56.0907942,42.3313609 L61.3517182,42.3313609 L69.7004883,26.7680801 L76.1531134,26.9827377 C79.4928636,26.9827377 82.2105263,24.3484148 82.2105263,21.1123204 C82.2121381,19.5220691 81.567037,18.0324513 80.3951169,16.9189913 C79.2579144,15.8383996 77.7529478,15.2419032 76.0897336,15.2419032 C76.0869078,15.2419032 76.085293,15.2419032 76.0844856,15.2419032 L69.6451824,15.4581838 L61.353333,0.00162311945 L56.0835277,0 C54.490556,0.00446357848 53.195106,1.31148051 53.195106,2.91228207 L53.195106,3.2117476 L56.8327815,15.8193279 L50.983677,15.8704562 L48.0112872,11.3504743 L44.3849151,11.3512858 C42.8952888,11.3512858 41.6842105,12.5686254 41.6842105,14.0651416 L41.6842105,28.2658136 C41.6842105,29.7627355 42.8940777,30.9792635 44.3841077,30.9792635 Z M58.4328465,51.0295858 C61.9742566,51.0295858 65.5349791,51.4311109 69.0180496,52.2225285 C81.3852233,55.0315997 91.9145009,62.4724495 98.6665963,73.1728326 C103.436355,80.7340196 105.89788,89.283576 105.947368,97.9983955 L105.947368,97.9983955 L99.0375551,97.9983955 C99.6298019,97.6915357 100.180607,97.3866814 100.623183,97.0974711 C100.411149,89.6859034 98.2248253,82.437192 94.1619806,75.9963443 C88.1674943,66.4941184 78.8174797,59.8872054 67.8367749,57.3930166 C64.7403546,56.6898462 61.5767432,56.3336481 58.4328465,56.3336481 C57.3541689,56.3336481 56.2855499,56.3813819 55.2257823,56.4600022 C53.8312666,57.9766519 52.2874822,60.2915384 51.8811172,63.9441733 C51.738286,65.2386004 51.5600487,66.3613464 51.4031355,67.3509193 C50.8289941,70.967453 50.8289941,70.967453 52.1941389,71.5739525 C54.2798774,72.5013511 55.5597257,72.6357276 57.0427566,72.7913637 C58.0771766,72.9000683 59.2495998,73.02201 60.6135376,73.4367722 C64.5621173,74.6393419 64.2426581,79.7821524 64.071663,82.5434898 C64.0595927,82.7372327 64.0459131,82.9634666 64.0354522,83.1704466 L64.0354522,83.1704466 L64.1444868,84.0440946 C64.1951818,84.42075 65.4215188,92.9871537 73.1199214,97.9979944 L73.1199214,97.9979944 L65.1113134,97.9979944 C60.6296312,92.8595962 59.2789708,87.0902301 58.9534765,85.2687261 C58.6259705,84.3774287 58.6935639,83.2863714 58.7599502,82.217376 C58.8122546,81.3754168 58.9426133,79.2691148 58.6847123,78.4070994 C57.9536578,78.2205768 57.2656538,78.1479733 56.4851112,78.0665451 C54.8805733,77.8996776 52.8825453,77.6890875 50.0267252,76.4175245 C45.1228973,74.2412932 45.5128485,70.5604784 46.0805426,66.9381992 L46.1465435,66.5205926 C46.2946052,65.5895839 46.4631863,64.5322211 46.5927403,63.3613402 C46.8590904,60.9722458 47.4968017,59.0837541 48.2886098,57.5574774 C33.9197871,61.0681144 22.3339606,71.9084899 18.0486211,86.4813239 C25.83916,88.4115325 29.6288147,91.0757979 29.29809,94.4075337 C29.2369341,95.0228579 29.1395675,95.6594416 29.0409938,96.2988332 C28.969377,96.7649393 28.8744244,97.3987152 28.8184989,98 L28.8184989,98 L23.4794269,98 C23.5329384,97.1203351 23.66209,96.2643366 23.7819878,95.4905684 C23.8359015,95.1411894 23.8890106,94.7946183 23.9352799,94.4524596 C22.9447151,93.6466015 19.8619743,92.4195632 16.8693581,91.6546198 C16.5233444,93.7693454 16.3451071,95.8888845 16.3221736,98 L16.3221736,98 L11,98 C11.0293709,94.6237395 11.4144118,91.2290273 12.1840911,87.8583825 C17.1393293,66.1744226 36.1584153,51.0295858 58.4328465,51.0295858 Z M115.106495,44.0710059 C117.207901,46.3716709 119.189296,48.8249519 121,51.362294 L121,51.362294 L116.642715,54.5088757 C114.958103,52.1486334 113.113342,49.864699 111.157895,47.7219548 L111.157895,47.7219548 Z M6.68456503,39.4319527 L10.4210526,43.4731275 C8.22837826,45.4711096 6.13472519,47.6233888 4.20067609,49.8698225 L4.20067609,49.8698225 L0,46.3056415 C2.07861185,43.8908082 4.32769077,41.5788398 6.68456503,39.4319527 L6.68456503,39.4319527 Z M100.803853,31.8934911 C103.391378,33.6350745 105.901058,35.5583131 108.263158,37.6084221 L108.263158,37.6084221 L104.78123,41.7514793 C102.583334,39.8447173 100.247182,38.0549397 97.8421053,36.4340478 L97.8421053,36.4340478 Z M59.1626665,4.63905325 L67.4280896,20.0668941 L76.3205116,19.7676411 C76.8330743,19.7676411 77.3092254,19.9525094 77.6621374,20.2872055 C77.982239,20.5916944 78.1578947,20.986805 78.1578947,21.4012483 C78.1578947,22.3042432 77.3324328,23.0376748 76.387733,23.0384803 L67.482907,22.7420467 L59.1618662,38.2721893 L58.1879572,38.2721893 L62.7293984,22.5088468 L49.1931026,22.4137947 L46.3157895,26.8023016 L46.3157895,16.1053162 L46.31739,16.1053162 L49.1450874,20.4112566 L62.7001892,20.293247 L58.1887574,4.63905325 L59.1626665,4.63905325 Z M21.7498381,28.9940828 L24.3157895,33.667395 C21.800641,35.0482287 19.3411339,36.5975355 17.0037958,38.2721893 L17.0037958,38.2721893 L13.8947368,33.9410628 C16.4046437,32.1418679 19.0472027,30.4776932 21.7498381,28.9940828 L21.7498381,28.9940828 Z M84.5950412,23.1952663 C87.534375,24.2698265 90.4314163,25.5361979 93.2105263,26.9601882 L93.2105263,26.9601882 L90.8063562,31.8934911 C88.220816,30.5679083 85.5246645,29.3895199 82.7894737,28.3904333 L82.7894737,28.3904333 Z M38.5382817,21.4556213 L39.9473684,26.7619641 C37.1106272,27.5255891 34.289978,28.471089 31.5601045,29.5739645 L31.5601045,29.5739645 L29.5263158,24.4773176 C32.4571337,23.2926399 35.4894553,22.2757189 38.5382817,21.4556213 L38.5382817,21.4556213 Z" id="Shape" fill="url(#linearGradient-1)"></path>
            </g>
        </g>
    </g>
</svg>