<?xml version="1.0" encoding="UTF-8"?>
<svg width="50px" height="50px" viewBox="0 0 50 50" version="1.1" xmlns="http://www.w3.org/2000/svg" xmlns:xlink="http://www.w3.org/1999/xlink">
    <title>ico-coordinates</title>
    <g id="travel-app" stroke="none" stroke-width="1" fill="none" fill-rule="evenodd">
        <g id="Desktop-HD-Copy" transform="translate(-856.000000, -547.000000)" fill="#FFFFFF" fill-rule="nonzero">
            <path d="M881,547 C867.215267,547 856,558.215267 856,572 C856,585.784733 867.215267,597 881,597 C894.784733,597 906,585.784733 906,572 C906,558.215267 894.784835,547 881,547 Z M881,592.652236 C869.613028,592.652236 860.347764,583.386972 860.347764,572 C860.347764,560.613028 869.613028,551.347866 881,551.347866 C892.386972,551.347866 901.652236,560.613028 901.652236,572 C901.652236,583.386972 892.386972,592.652236 881,592.652236 Z M892.63918,560.363062 C892.323996,560.045636 891.847909,559.954331 891.441319,560.132661 L876.223941,566.654408 C875.967452,566.763138 875.763036,566.969592 875.652167,567.226182 L869.130419,582.44356 C868.954331,582.852291 869.045636,583.326136 869.36082,583.641422 C869.569516,583.845736 869.847811,583.956606 870.130386,583.956606 C870.273865,583.956606 870.419483,583.926137 870.558681,583.869683 L885.776059,577.347935 C886.032548,577.237066 886.236964,577.032751 886.347833,576.776161 L892.869581,561.558783 C893.043529,561.150053 892.952224,560.676106 892.63918,560.363062 Z M881,574.173984 C879.802138,574.173984 878.826118,573.197862 878.826118,572.000102 C878.826118,570.80224 879.80224,569.82622 881,569.82622 C882.197862,569.82622 883.173882,570.802342 883.173882,572.000102 C883.173984,573.197862 882.197862,574.173984 881,574.173984 Z" id="ico-coordinates"></path>
        </g>
    </g>
</svg>